<svg width="199" height="59" viewBox="0 0 199 59" fill="none" xmlns="http://www.w3.org/2000/svg">
<rect x="0.5" y="0.5" width="198" height="58" rx="6.5" fill="white"/>
<path d="M128.61 28.3215V31.7008H126.468V33.9169H128.61V41.4467C128.61 44.0179 129.786 45.0464 132.745 45.0464C133.265 45.0464 133.761 44.9851 134.194 44.9117V42.7201C133.822 42.7568 133.587 42.7813 133.179 42.7813C131.854 42.7813 131.272 42.1691 131.272 40.7733V33.9169H134.194V31.7008H131.272V28.3215H128.61Z" fill="#202020"/>
<path d="M141.733 45.23C145.67 45.23 148.085 42.6221 148.085 38.3001C148.085 34.0026 145.658 31.3824 141.733 31.3824C137.795 31.3824 135.368 34.0026 135.368 38.3001C135.368 42.6221 137.783 45.23 141.733 45.23ZM141.733 42.8915C139.417 42.8915 138.117 41.2141 138.117 38.3001C138.117 35.4106 139.417 33.721 141.733 33.721C144.036 33.721 145.348 35.4106 145.348 38.3001C145.348 41.2018 144.036 42.8915 141.733 42.8915Z" fill="#202020"/>
<path d="M150.15 44.9729H152.812V37.1002C152.812 35.2269 154.236 33.9658 156.255 33.9658C156.725 33.9658 157.518 34.0516 157.74 34.125V31.5294C157.456 31.4559 156.948 31.4192 156.552 31.4192C154.794 31.4192 153.295 32.3742 152.912 33.6842H152.713V31.6396H150.15V44.9729Z" fill="#202020"/>
<path d="M164.351 33.623C166.319 33.623 167.607 34.9821 167.669 37.0757H160.859C161.007 34.9943 162.382 33.623 164.351 33.623ZM167.656 41.3733C167.161 42.414 166.059 42.9894 164.45 42.9894C162.32 42.9894 160.945 41.5079 160.859 39.1694V39.0225H170.381V38.1042C170.381 33.9169 168.115 31.3824 164.363 31.3824C160.562 31.3824 158.147 34.0883 158.147 38.3491C158.147 42.6099 160.512 45.23 164.375 45.23C167.458 45.23 169.613 43.7608 170.22 41.3733H167.656Z" fill="#202020"/>
<path d="M111.152 40.0491C111.357 43.3232 114.116 45.417 118.223 45.417C122.612 45.417 125.359 43.2216 125.359 39.7192C125.359 36.9654 123.793 35.4426 119.994 34.5669L117.954 34.072C115.541 33.5137 114.566 32.7649 114.566 31.4578C114.566 29.8081 116.08 28.7295 118.351 28.7295C120.507 28.7295 121.996 29.7827 122.266 31.4705H125.063C124.897 28.3868 122.15 26.2168 118.39 26.2168C114.347 26.2168 111.652 28.3868 111.652 31.6482C111.652 34.3385 113.179 35.9375 116.529 36.7116L118.916 37.2826C121.367 37.8537 122.445 38.6912 122.445 40.0872C122.445 41.7115 120.751 42.8917 118.441 42.8917C115.964 42.8917 114.245 41.7877 114.001 40.0491H111.152Z" fill="#202020"/>
<path d="M83.5748 31.4192C81.7423 31.4192 80.1574 32.3252 79.3402 33.8434H79.1421V31.6396H76.579V49.4051H79.2411V42.9527H79.4516C80.1574 44.3607 81.6804 45.1933 83.5996 45.1933C87.0047 45.1933 89.1715 42.5364 89.1715 38.3001C89.1715 34.0638 87.0047 31.4192 83.5748 31.4192ZM82.8195 42.8303C80.5908 42.8303 79.1916 41.0917 79.1916 38.3123C79.1916 35.5208 80.5908 33.7822 82.8319 33.7822C85.0854 33.7822 86.4351 35.4841 86.4351 38.3001C86.4351 41.1284 85.0854 42.8303 82.8195 42.8303Z" fill="#202020"/>
<path d="M98.4867 31.4192C96.6542 31.4192 95.0693 32.3252 94.2521 33.8434H94.054V31.6396H91.4909V49.4051H94.153V42.9527H94.3635C95.0693 44.3607 96.5923 45.1933 98.5115 45.1933C101.917 45.1933 104.083 42.5364 104.083 38.3001C104.083 34.0638 101.917 31.4192 98.4867 31.4192ZM97.7314 42.8303C95.5027 42.8303 94.1035 41.0917 94.1035 38.3123C94.1035 35.5208 95.5027 33.7822 97.7438 33.7822C99.9973 33.7822 101.347 35.4841 101.347 38.3001C101.347 41.1284 99.9973 42.8303 97.7314 42.8303Z" fill="#202020"/>
<path d="M71.8027 44.9729H74.8571L68.1708 26.661H65.0779L58.3916 44.9729H61.3433L63.0502 40.1125H70.1087L71.8027 44.9729ZM66.4768 29.9858H66.6949L69.3771 37.7268H63.7817L66.4768 29.9858Z" fill="#202020"/>
<path d="M60.1797 12.8487V21.6825H63.4052C66.0673 21.6825 67.6089 20.0602 67.6089 17.2381C67.6089 14.4588 66.0549 12.8487 63.4052 12.8487H60.1797ZM61.5665 14.0976H63.2504C65.1015 14.0976 66.1973 15.2607 66.1973 17.2564C66.1973 19.2828 65.1201 20.4337 63.2504 20.4337H61.5665V14.0976Z" fill="#202020"/>
<path d="M72.3301 21.8111C74.2989 21.8111 75.5061 20.5071 75.5061 18.3461C75.5061 16.1974 74.2927 14.8873 72.3301 14.8873C70.3614 14.8873 69.148 16.1974 69.148 18.3461C69.148 20.5071 70.3552 21.8111 72.3301 21.8111ZM72.3301 20.6418C71.1724 20.6418 70.5224 19.8031 70.5224 18.3461C70.5224 16.9014 71.1724 16.0565 72.3301 16.0565C73.4817 16.0565 74.1379 16.9014 74.1379 18.3461C74.1379 19.797 73.4817 20.6418 72.3301 20.6418Z" fill="#202020"/>
<path d="M85.7869 15.0158H84.4558L83.2548 20.1031H83.1495L81.7627 15.0158H80.4874L79.1006 20.1031H79.0016L77.7943 15.0158H76.4447L78.302 21.6825H79.6702L81.057 16.7728H81.1622L82.5552 21.6825H83.9358L85.7869 15.0158Z" fill="#202020"/>
<path d="M87.3198 21.6825H88.6509V17.7829C88.6509 16.7422 89.2761 16.0933 90.2605 16.0933C91.2449 16.0933 91.7154 16.6259 91.7154 17.6972V21.6825H93.0465V17.3666C93.0465 15.7811 92.2169 14.8873 90.7125 14.8873C89.6971 14.8873 89.0285 15.3342 88.7004 16.0749H88.6013V15.0158H87.3198V21.6825Z" fill="#202020"/>
<path d="M95.1427 21.6825H96.4738V12.4141H95.1427V21.6825Z" fill="#202020"/>
<path d="M101.48 21.8111C103.449 21.8111 104.656 20.5071 104.656 18.3461C104.656 16.1974 103.442 14.8873 101.48 14.8873C99.5111 14.8873 98.2977 16.1974 98.2977 18.3461C98.2977 20.5071 99.5049 21.8111 101.48 21.8111ZM101.48 20.6418C100.322 20.6418 99.6721 19.8031 99.6721 18.3461C99.6721 16.9014 100.322 16.0565 101.48 16.0565C102.631 16.0565 103.288 16.9014 103.288 18.3461C103.288 19.797 102.631 20.6418 101.48 20.6418Z" fill="#202020"/>
<path d="M108.622 20.6846C107.897 20.6846 107.371 20.3357 107.371 19.7358C107.371 19.1481 107.792 18.8359 108.721 18.7746L110.368 18.6706V19.2277C110.368 20.0541 109.625 20.6846 108.622 20.6846ZM108.281 21.7927C109.167 21.7927 109.903 21.4131 110.306 20.7459H110.411V21.6825H111.693V17.1279C111.693 15.7198 110.739 14.8873 109.049 14.8873C107.52 14.8873 106.43 15.6219 106.294 16.7667H107.582C107.73 16.2953 108.244 16.0259 108.987 16.0259C109.897 16.0259 110.368 16.4239 110.368 17.1279V17.7033L108.541 17.8074C106.938 17.9053 106.034 18.5971 106.034 19.797C106.034 21.0152 106.981 21.7927 108.281 21.7927Z" fill="#202020"/>
<path d="M116.209 21.7927C117.138 21.7927 117.924 21.3581 118.327 20.6296H118.432V21.6825H119.707V12.4141H118.376V16.0749H118.277C117.912 15.3403 117.132 14.9056 116.209 14.9056C114.507 14.9056 113.411 16.2402 113.411 18.3461C113.411 20.4581 114.495 21.7927 116.209 21.7927ZM116.587 16.0872C117.701 16.0872 118.401 16.9626 118.401 18.3522C118.401 19.748 117.708 20.6112 116.587 20.6112C115.46 20.6112 114.786 19.7603 114.786 18.3461C114.786 16.9442 115.467 16.0872 116.587 16.0872Z" fill="#202020"/>
<path d="M128.339 21.8111C130.308 21.8111 131.515 20.5071 131.515 18.3461C131.515 16.1974 130.301 14.8873 128.339 14.8873C126.37 14.8873 125.157 16.1974 125.157 18.3461C125.157 20.5071 126.364 21.8111 128.339 21.8111ZM128.339 20.6418C127.181 20.6418 126.531 19.8031 126.531 18.3461C126.531 16.9014 127.181 16.0565 128.339 16.0565C129.49 16.0565 130.147 16.9014 130.147 18.3461C130.147 19.797 129.49 20.6418 128.339 20.6418Z" fill="#202020"/>
<path d="M133.277 21.6825H134.608V17.7829C134.608 16.7422 135.233 16.0933 136.218 16.0933C137.202 16.0933 137.672 16.6259 137.672 17.6972V21.6825H139.003V17.3666C139.003 15.7811 138.174 14.8873 136.669 14.8873C135.654 14.8873 134.986 15.3342 134.657 16.0749H134.558V15.0158H133.277V21.6825Z" fill="#202020"/>
<path d="M145.134 13.3568V15.0464H144.063V16.1545H145.134V19.9194C145.134 21.205 145.722 21.7192 147.202 21.7192C147.462 21.7192 147.709 21.6886 147.926 21.6519V20.5561C147.74 20.5745 147.623 20.5867 147.418 20.5867C146.756 20.5867 146.465 20.2806 146.465 19.5827V16.1545H147.926V15.0464H146.465V13.3568H145.134Z" fill="#202020"/>
<path d="M149.713 21.6825H151.044V17.789C151.044 16.7789 151.65 16.0994 152.74 16.0994C153.681 16.0994 154.183 16.6381 154.183 17.7033V21.6825H155.514V17.3789C155.514 15.7933 154.628 14.8934 153.192 14.8934C152.177 14.8934 151.465 15.3403 151.137 16.0872H151.031V12.4141H149.713V21.6825Z" fill="#202020"/>
<path d="M160.315 16.0076C161.3 16.0076 161.944 16.6871 161.975 17.7339H158.57C158.644 16.6932 159.331 16.0076 160.315 16.0076ZM161.968 19.8827C161.721 20.403 161.17 20.6908 160.365 20.6908C159.3 20.6908 158.613 19.95 158.57 18.7808V18.7073H163.33V18.2482C163.33 16.1545 162.197 14.8873 160.322 14.8873C158.421 14.8873 157.214 16.2402 157.214 18.3706C157.214 20.501 158.396 21.8111 160.328 21.8111C161.869 21.8111 162.947 21.0764 163.25 19.8827H161.968Z" fill="#202020"/>
<path d="M41.9472 29.9438C41.9795 27.4643 43.3261 25.1182 45.4624 23.8195C44.1147 21.9163 41.8574 20.7096 39.5089 20.637C37.004 20.377 34.5757 22.1191 33.2992 22.1191C31.9981 22.1191 30.0328 20.6628 27.9166 20.7058C25.1581 20.7939 22.5865 22.3447 21.2444 24.7294C18.3596 29.6684 20.5114 36.9269 23.2749 40.9191C24.6575 42.874 26.2734 45.0577 28.3878 44.9803C30.4568 44.8954 31.2296 43.6757 33.7271 43.6757C36.2014 43.6757 36.9264 44.9803 39.0836 44.931C41.3038 44.8954 42.7026 42.9675 44.0367 40.9941C45.0301 39.6011 45.7946 38.0616 46.3017 36.4326C43.6926 35.3414 41.9502 32.745 41.9472 29.9438Z" fill="#202020"/>
<path d="M37.8724 18.0115C39.083 16.5745 39.6793 14.7275 39.5349 12.8628C37.6855 13.0549 35.9772 13.9289 34.7503 15.3107C33.5506 16.6608 32.9262 18.4753 33.0443 20.2688C34.8943 20.2876 36.7131 19.4373 37.8724 18.0115Z" fill="#202020"/>
<rect x="0.5" y="0.5" width="198" height="58" rx="6.5" stroke="#202020"/>
</svg>
