<svg width="199" height="59" viewBox="0 0 199 59" fill="none" xmlns="http://www.w3.org/2000/svg">
<rect x="0.5" y="0.5" width="198" height="58" rx="6.5" fill="white"/>
<path d="M100.438 32.0829C96.9706 32.0829 94.1448 34.7217 94.1448 38.3561C94.1448 41.9684 96.9706 44.6293 100.438 44.6293C103.906 44.6293 106.732 41.9684 106.732 38.3561C106.73 34.7217 103.905 32.0829 100.438 32.0829ZM100.438 42.1601C98.5375 42.1601 96.8998 40.5922 96.8998 38.3576C96.8998 36.0994 98.539 34.555 100.438 34.555C102.338 34.555 103.975 36.0994 103.975 38.3576C103.975 40.5907 102.338 42.1601 100.438 42.1601ZM86.7081 32.0829C83.241 32.0829 80.4152 34.7217 80.4152 38.3561C80.4152 41.9684 83.241 44.6293 86.7081 44.6293C90.1766 44.6293 93.0024 41.9684 93.0024 38.3561C93.0024 34.7217 90.1766 32.0829 86.7081 32.0829ZM86.7081 42.1601C84.808 42.1601 83.1703 40.5922 83.1703 38.3576C83.1703 36.0994 84.8095 34.555 86.7081 34.555C88.6081 34.555 90.2458 36.0994 90.2458 38.3576C90.2473 40.5907 88.6081 42.1601 86.7081 42.1601ZM70.3783 34.0093V36.6702H76.7433C76.5532 38.1673 76.0549 39.2603 75.2943 40.0199C74.3686 40.9462 72.9196 41.9684 70.3783 41.9684C66.4602 41.9684 63.3971 38.8075 63.3971 34.8869C63.3971 30.9664 66.4602 27.8054 70.3783 27.8054C72.4921 27.8054 74.0354 28.6373 75.1749 29.7067L77.0514 27.829C75.4594 26.3083 73.3471 25.1445 70.3783 25.1445C65.0112 25.1445 60.499 29.5164 60.499 34.8869C60.499 40.2574 65.0112 44.6293 70.3783 44.6293C73.2748 44.6293 75.4609 43.6779 77.1693 41.8961C78.9264 40.1379 79.4733 37.6658 79.4733 35.6701C79.4733 35.0536 79.4261 34.4828 79.3303 34.0078H70.3783V34.0093ZM137.166 36.0758C136.644 34.6745 135.052 32.0829 131.799 32.0829C128.569 32.0829 125.885 34.6258 125.885 38.3561C125.885 41.8725 128.545 44.6293 132.107 44.6293C134.98 44.6293 136.642 42.8711 137.332 41.8489L135.195 40.4226C134.483 41.4684 133.508 42.1572 132.107 42.1572C130.706 42.1572 129.708 41.5156 129.067 40.2559L137.45 36.7867L137.166 36.0758ZM128.616 38.1673C128.545 35.7424 130.492 34.5078 131.894 34.5078C132.987 34.5078 133.912 35.0551 134.222 35.8383L128.616 38.1673ZM121.801 44.2502H124.555V25.8112H121.801V44.2502ZM117.288 33.4857H117.193C116.576 32.7482 115.388 32.0829 113.893 32.0829C110.758 32.0829 107.885 34.8397 107.885 38.3812C107.885 41.8976 110.758 44.6308 113.893 44.6308C115.389 44.6308 116.576 43.9655 117.193 43.2059H117.288V44.1086C117.288 46.5084 116.005 47.7917 113.94 47.7917C112.254 47.7917 111.209 46.5807 110.781 45.5585L108.383 46.5571C109.071 48.2194 110.899 50.2638 113.94 50.2638C117.17 50.2638 119.901 48.3625 119.901 43.7281V32.465H117.289V33.4857H117.288ZM114.13 42.1601C112.23 42.1601 110.64 40.5671 110.64 38.3812C110.64 36.1702 112.23 34.555 114.13 34.555C116.005 34.555 117.478 36.1702 117.478 38.3812C117.478 40.5671 116.005 42.1601 114.13 42.1601ZM150.07 25.8112H143.479V44.2502H146.228V37.2646H150.068C153.117 37.2646 156.115 35.0565 156.115 31.5387C156.115 28.0208 153.118 25.8112 150.07 25.8112ZM150.14 34.6981H146.228V28.3777H150.14C152.197 28.3777 153.364 30.0814 153.364 31.5387C153.364 32.9665 152.197 34.6981 150.14 34.6981ZM167.139 32.0505C165.148 32.0505 163.086 32.9281 162.232 34.8736L164.673 35.8929C165.195 34.8736 166.168 34.5403 167.187 34.5403C168.609 34.5403 170.055 35.3943 170.079 36.9121V37.1024C169.581 36.8177 168.513 36.3914 167.21 36.3914C164.579 36.3914 161.899 37.8384 161.899 40.5421C161.899 43.0097 164.057 44.5983 166.475 44.5983C168.323 44.5983 169.343 43.7679 169.983 42.7944H170.077V44.2178H172.734V37.1481C172.735 33.8765 170.291 32.0505 167.139 32.0505ZM166.806 42.1557C165.907 42.1557 164.65 41.7044 164.65 40.5893C164.65 39.1659 166.215 38.6201 167.567 38.6201C168.774 38.6201 169.345 38.8812 170.079 39.2367C169.865 40.9462 168.395 42.1557 166.806 42.1557ZM182.406 32.4532L179.253 40.4477H179.159L175.887 32.4532H172.924L177.831 43.6263L175.033 49.8419H177.902L185.465 32.4532H182.406ZM157.633 44.2502H160.382V25.8112H157.633V44.2502Z" fill="#202020"/>
<path d="M69.8978 15.1085C69.8978 16.3445 69.5322 17.3283 68.7996 18.0629C67.9682 18.9361 66.8833 19.3727 65.5507 19.3727C64.2742 19.3727 63.1878 18.9302 62.296 18.0452C61.4027 17.1587 60.9561 16.0613 60.9561 14.7515C60.9561 13.4402 61.4027 12.3428 62.296 11.4578C63.1878 10.5714 64.2742 10.1289 65.5507 10.1289C66.1846 10.1289 66.7904 10.2528 67.3653 10.4991C67.9417 10.7469 68.4031 11.0758 68.748 11.4873L67.9712 12.2661C67.386 11.5655 66.5796 11.2159 65.5493 11.2159C64.6177 11.2159 63.8128 11.5434 63.1333 12.1983C62.4537 12.8532 62.1147 13.7043 62.1147 14.75C62.1147 15.7958 62.4537 16.6469 63.1333 17.3018C63.8128 17.9567 64.6177 18.2841 65.5493 18.2841C66.5369 18.2841 67.3609 17.9552 68.0198 17.2959C68.4473 16.8667 68.6949 16.2693 68.7613 15.5038H65.5493V14.4403H69.8344C69.8786 14.6719 69.8978 14.8946 69.8978 15.1085Z" fill="#202020"/>
<path d="M76.6934 11.4122H72.6662V14.2176H76.2984V15.2811H72.6662V18.0866H76.6934V19.1751H71.5297V10.3251H76.6934V11.4122Z" fill="#202020"/>
<path d="M81.4855 19.1751H80.3489V11.4122H77.8784V10.3251H83.956V11.4122H81.4855V19.1751Z" fill="#202020"/>
<path d="M88.3531 19.1751V10.3251H89.4896V19.1751H88.3531Z" fill="#202020"/>
<path d="M94.5297 19.1751H93.3932V11.4122H90.9227V10.3251H97.0003V11.4122H94.5297V19.1751Z" fill="#202020"/>
<path d="M108.505 18.032C107.635 18.9258 106.555 19.3728 105.262 19.3728C103.969 19.3728 102.889 18.9258 102.021 18.032C101.151 17.1381 100.718 16.0437 100.718 14.7501C100.718 13.4565 101.151 12.3621 102.021 11.4682C102.889 10.5744 103.969 10.126 105.262 10.126C106.548 10.126 107.627 10.5759 108.499 11.4741C109.372 12.3724 109.808 13.4639 109.808 14.7501C109.808 16.0437 109.373 17.1381 108.505 18.032ZM102.859 17.2901C103.514 17.9538 104.314 18.2842 105.262 18.2842C106.21 18.2842 107.012 17.9523 107.665 17.2901C108.319 16.6263 108.648 15.7797 108.648 14.7501C108.648 13.7206 108.319 12.8739 107.665 12.2102C107.012 11.5464 106.21 11.216 105.262 11.216C104.314 11.216 103.514 11.5479 102.859 12.2102C102.206 12.8739 101.878 13.7206 101.878 14.7501C101.878 15.7797 102.206 16.6263 102.859 17.2901Z" fill="#202020"/>
<path d="M111.403 19.1751V10.3251H112.786L117.084 17.2089H117.133L117.084 15.5038V10.3251H118.221V19.1751H117.034L112.537 11.9565H112.488L112.537 13.6616V19.1751H111.403Z" fill="#202020"/>
<path d="M69.8978 15.1085C69.8978 16.3445 69.5322 17.3283 68.7996 18.0629C67.9682 18.9361 66.8833 19.3727 65.5507 19.3727C64.2742 19.3727 63.1878 18.9302 62.296 18.0452C61.4027 17.1587 60.9561 16.0613 60.9561 14.7515C60.9561 13.4402 61.4027 12.3428 62.296 11.4578C63.1878 10.5714 64.2742 10.1289 65.5507 10.1289C66.1846 10.1289 66.7904 10.2528 67.3653 10.4991C67.9417 10.7469 68.4031 11.0758 68.748 11.4873L67.9712 12.2661C67.386 11.5655 66.5796 11.2159 65.5493 11.2159C64.6177 11.2159 63.8128 11.5434 63.1333 12.1983C62.4537 12.8532 62.1147 13.7043 62.1147 14.75C62.1147 15.7958 62.4537 16.6469 63.1333 17.3018C63.8128 17.9567 64.6177 18.2841 65.5493 18.2841C66.5369 18.2841 67.3609 17.9552 68.0198 17.2959C68.4473 16.8667 68.6949 16.2693 68.7613 15.5038H65.5493V14.4403H69.8344C69.8786 14.6719 69.8978 14.8946 69.8978 15.1085Z" stroke="#202020" stroke-width="0.2" stroke-miterlimit="10"/>
<path d="M76.6934 11.4122H72.6662V14.2176H76.2984V15.2811H72.6662V18.0866H76.6934V19.1751H71.5297V10.3251H76.6934V11.4122Z" stroke="#202020" stroke-width="0.2" stroke-miterlimit="10"/>
<path d="M81.4855 19.1751H80.3489V11.4122H77.8784V10.3251H83.956V11.4122H81.4855V19.1751Z" stroke="#202020" stroke-width="0.2" stroke-miterlimit="10"/>
<path d="M88.3531 19.1751V10.3251H89.4896V19.1751H88.3531Z" stroke="#202020" stroke-width="0.2" stroke-miterlimit="10"/>
<path d="M94.5297 19.1751H93.3932V11.4122H90.9227V10.3251H97.0003V11.4122H94.5297V19.1751Z" stroke="#202020" stroke-width="0.2" stroke-miterlimit="10"/>
<path d="M108.505 18.032C107.635 18.9258 106.555 19.3728 105.262 19.3728C103.969 19.3728 102.889 18.9258 102.021 18.032C101.151 17.1381 100.718 16.0437 100.718 14.7501C100.718 13.4565 101.151 12.3621 102.021 11.4682C102.889 10.5744 103.969 10.126 105.262 10.126C106.548 10.126 107.627 10.5759 108.499 11.4741C109.372 12.3724 109.808 13.4639 109.808 14.7501C109.808 16.0437 109.373 17.1381 108.505 18.032ZM102.859 17.2901C103.514 17.9538 104.314 18.2842 105.262 18.2842C106.21 18.2842 107.012 17.9523 107.665 17.2901C108.319 16.6263 108.648 15.7797 108.648 14.7501C108.648 13.7206 108.319 12.8739 107.665 12.2102C107.012 11.5464 106.21 11.216 105.262 11.216C104.314 11.216 103.514 11.5479 102.859 12.2102C102.206 12.8739 101.878 13.7206 101.878 14.7501C101.878 15.7797 102.206 16.6263 102.859 17.2901Z" stroke="#202020" stroke-width="0.2" stroke-miterlimit="10"/>
<path d="M111.403 19.1751V10.3251H112.786L117.084 17.2089H117.133L117.084 15.5038V10.3251H118.221V19.1751H117.034L112.537 11.9565H112.488L112.537 13.6616V19.1751H111.403Z" stroke="#202020" stroke-width="0.2" stroke-miterlimit="10"/>
<path fill-rule="evenodd" clip-rule="evenodd" d="M15.0837 11.527C14.8391 11.957 14.7012 12.5173 14.7012 13.1908V45.8119C14.7012 46.4868 14.8393 47.0469 15.0841 47.4766L33.0461 29.5008L15.0837 11.527ZM15.7744 48.2006C16.4546 48.6105 17.4023 48.5684 18.4468 47.9757L39.5293 35.988L33.753 30.2081L15.7744 48.2006ZM40.4318 35.4764L47.1927 31.6327C49.252 30.4601 49.252 28.5441 47.1927 27.3729L40.4288 23.5271L34.4598 29.5007L40.4318 35.4764ZM39.5274 23.0145L18.4468 11.0284C17.4023 10.4345 16.4546 10.3932 15.7744 10.8035L33.7529 28.7934L39.5274 23.0145Z" fill="#202020"/>
<rect x="0.5" y="0.5" width="198" height="58" rx="6.5" stroke="#202020"/>
</svg>
