<svg width="45" height="45" viewBox="0 0 45 45" fill="none" xmlns="http://www.w3.org/2000/svg">
<g clip-path="url(#clip0_678_25713)">
<path fill-rule="evenodd" clip-rule="evenodd" d="M13.8736 0.132227C16.2236 0.0240412 16.9729 0 22.9592 0C28.9454 0 29.6947 0.0260446 32.0427 0.132227C34.3908 0.238409 35.9935 0.613051 37.3959 1.15598C38.8644 1.71093 40.1967 2.57842 41.2986 3.70034C42.4205 4.80023 43.286 6.13051 43.839 7.60103C44.3839 9.00344 44.7565 10.6062 44.8647 12.9502C44.9729 15.3042 44.997 16.0535 44.997 22.0378C44.997 28.024 44.9709 28.7733 44.8647 31.1234C44.7585 33.4674 44.3839 35.0701 43.839 36.4725C43.286 37.9432 42.4191 39.2757 41.2986 40.3772C40.1967 41.4992 38.8644 42.3646 37.3959 42.9176C35.9935 43.4625 34.3908 43.8352 32.0467 43.9433C29.6947 44.0515 28.9454 44.0756 22.9592 44.0756C16.9729 44.0756 16.2236 44.0495 13.8736 43.9433C11.5296 43.8372 9.92683 43.4625 8.52442 42.9176C7.05374 42.3646 5.72126 41.4977 4.61973 40.3772C3.49857 39.2767 2.63095 37.9448 2.07737 36.4745C1.53444 35.0721 1.1618 33.4694 1.05361 31.1254C0.945428 28.7713 0.921387 28.022 0.921387 22.0378C0.921387 16.0515 0.947431 15.3022 1.05361 12.9542C1.1598 10.6062 1.53444 9.00344 2.07737 7.60103C2.63176 6.13067 3.50005 4.79885 4.62173 3.69834C5.7217 2.57742 7.05284 1.70982 8.52242 1.15598C9.92482 0.613051 11.5276 0.240412 13.8716 0.132227H13.8736ZM31.8644 4.09903C29.5405 3.99285 28.8433 3.97081 22.9592 3.97081C17.0751 3.97081 16.3779 3.99285 14.0539 4.09903C11.9042 4.1972 10.7382 4.55581 9.96089 4.85833C8.93312 5.25902 8.19786 5.73383 7.42654 6.50515C6.69538 7.21648 6.13268 8.08242 5.77972 9.0395C5.4772 9.81683 5.11858 10.9828 5.02041 13.1325C4.91423 15.4565 4.8922 16.1537 4.8922 22.0378C4.8922 27.9219 4.91423 28.6191 5.02041 30.9431C5.11858 33.0927 5.4772 34.2587 5.77972 35.0361C6.13232 35.9917 6.69529 36.8592 7.42654 37.5704C8.13776 38.3017 9.00525 38.8646 9.96089 39.2172C10.7382 39.5198 11.9042 39.8784 14.0539 39.9765C16.3779 40.0827 17.0731 40.1048 22.9592 40.1048C28.8453 40.1048 29.5405 40.0827 31.8644 39.9765C34.0141 39.8784 35.1801 39.5198 35.9575 39.2172C36.9852 38.8166 37.7205 38.3417 38.4918 37.5704C39.2231 36.8592 39.786 35.9917 40.1386 35.0361C40.4411 34.2587 40.7998 33.0927 40.8979 30.9431C41.0041 28.6191 41.0261 27.9219 41.0261 22.0378C41.0261 16.1537 41.0041 15.4565 40.8979 13.1325C40.7998 10.9828 40.4411 9.81683 40.1386 9.0395C39.7379 8.01174 39.2631 7.27648 38.4918 6.50515C37.7804 5.77404 36.9145 5.21136 35.9575 4.85833C35.1801 4.55581 34.0141 4.1972 31.8644 4.09903ZM20.1443 28.8314C21.7164 29.4858 23.4668 29.5741 25.0967 29.0813C26.7266 28.5885 28.1348 27.5451 29.0809 26.1293C30.0269 24.7135 30.4521 23.0132 30.2838 21.3188C30.1155 19.6243 29.3642 18.0409 28.1581 16.8389C27.3892 16.0705 26.4596 15.4822 25.4361 15.1162C24.4126 14.7503 23.3206 14.6158 22.2389 14.7225C21.1572 14.8292 20.1126 15.1744 19.1803 15.7332C18.248 16.2921 17.4512 17.0507 16.8473 17.9545C16.2434 18.8582 15.8474 19.8847 15.6877 20.9599C15.5281 22.035 15.6089 23.1322 15.9242 24.1725C16.2395 25.2127 16.7815 26.1701 17.5113 26.9757C18.241 27.7813 19.1403 28.4151 20.1443 28.8314ZM14.9494 14.0281C16.0013 12.9762 17.25 12.1418 18.6243 11.5726C19.9986 11.0033 21.4716 10.7103 22.9592 10.7103C24.4467 10.7103 25.9197 11.0033 27.294 11.5726C28.6683 12.1418 29.9171 12.9762 30.9689 14.0281C32.0208 15.0799 32.8551 16.3286 33.4244 17.7029C33.9936 19.0773 34.2866 20.5502 34.2866 22.0378C34.2866 23.5253 33.9936 24.9983 33.4244 26.3726C32.8551 27.7469 32.0208 28.9957 30.9689 30.0475C28.8446 32.1718 25.9634 33.3653 22.9592 33.3653C19.9549 33.3653 17.0738 32.1718 14.9494 30.0475C12.8251 27.9232 11.6317 25.042 11.6317 22.0378C11.6317 19.0336 12.8251 16.1524 14.9494 14.0281ZM36.7989 12.3973C37.0596 12.1514 37.2682 11.8557 37.4126 11.5277C37.5569 11.1997 37.634 10.8461 37.6392 10.4878C37.6444 10.1295 37.5777 9.77385 37.443 9.44181C37.3083 9.10976 37.1083 8.80812 36.8549 8.55475C36.6015 8.30137 36.2999 8.1014 35.9679 7.96669C35.6358 7.83198 35.2801 7.76527 34.9218 7.77049C34.5635 7.77571 34.2099 7.85277 33.882 7.9971C33.554 8.14144 33.2583 8.35011 33.0124 8.61076C32.5342 9.11769 32.2724 9.79103 32.2826 10.4878C32.2927 11.1847 32.574 11.8501 33.0668 12.3428C33.5596 12.8356 34.225 13.1169 34.9218 13.1271C35.6186 13.1373 36.292 12.8755 36.7989 12.3973Z" fill="white"/>
</g>
<defs>
<clipPath id="clip0_678_25713">
<rect width="44.0756" height="44.0756" fill="white" transform="translate(0.921875)"/>
</clipPath>
</defs>
</svg>
