<svg width="164" height="61" viewBox="0 0 164 61" fill="none" xmlns="http://www.w3.org/2000/svg">
<g filter="url(#filter0_d_1116_22122)">
<path fill-rule="evenodd" clip-rule="evenodd" d="M61.7347 42.0284C60.9494 41.8714 60.1855 42.3807 60.0284 43.1659C59.8714 43.9512 60.3807 44.7151 61.1659 44.8722L81.0723 48.8535L82.4942 49.1378L82.4957 49.13L82.4973 49.1378L83.9192 48.8535L103.826 44.8722C104.611 44.7151 105.12 43.9512 104.963 43.1659C104.806 42.3807 104.042 41.8714 103.257 42.0284L83.3504 46.0097L82.4957 46.1806L81.641 46.0097L61.7347 42.0284Z" fill="white"/>
</g>
<g filter="url(#filter1_d_1116_22122)">
<path d="M17.7336 18.0001H15.4776V10.3921C13.7336 10.7921 12.1496 10.9921 10.7256 10.9921C9.73359 10.9921 8.85359 10.8721 8.08559 10.6321C7.33359 10.3761 6.74959 10.0721 6.33359 9.72011C5.93359 9.35211 5.60559 8.92011 5.34959 8.42411C5.09359 7.92811 4.92559 7.48011 4.84559 7.08011C4.76559 6.66411 4.72559 6.23211 4.72559 5.78411V0.912109H6.98159V5.59211C6.98159 5.92811 6.99759 6.23211 7.02959 6.50411C7.07759 6.76011 7.17359 7.05611 7.31759 7.39211C7.46159 7.71211 7.66159 7.98411 7.91759 8.20811C8.17359 8.43211 8.54159 8.62411 9.02159 8.78411C9.50159 8.92811 10.0696 9.00011 10.7256 9.00011C12.1656 9.00011 13.7496 8.80811 15.4776 8.42411V0.912109H17.7336V18.0001Z" fill="white"/>
<path d="M30.6214 7.41611H26.1814V18.0001H24.1414V7.41611H19.7014V5.61611H30.6214V7.41611Z" fill="white"/>
<path d="M32.8129 7.03211C33.9009 5.84811 35.3809 5.25611 37.2529 5.25611C39.1249 5.25611 40.5809 5.82411 41.6209 6.96011C42.6609 8.09611 43.1809 9.68811 43.1809 11.7361C43.1809 13.8321 42.6609 15.4641 41.6209 16.6321C40.5809 17.8001 39.1169 18.3841 37.2289 18.3841C35.3409 18.3841 33.8609 17.8081 32.7889 16.6561C31.7169 15.5041 31.1809 13.9041 31.1809 11.8561C31.1809 9.82411 31.7249 8.21611 32.8129 7.03211ZM40.0369 8.28011C39.3489 7.40011 38.4049 6.96011 37.2049 6.96011C36.0049 6.96011 35.0529 7.40011 34.3489 8.28011C33.6449 9.16011 33.2929 10.3361 33.2929 11.8081C33.2929 13.3281 33.6369 14.5201 34.3249 15.3841C35.0289 16.2321 36.0049 16.6561 37.2529 16.6561C38.4529 16.6561 39.3889 16.2241 40.0609 15.3601C40.7489 14.4961 41.0929 13.3041 41.0929 11.7841C41.0929 10.3121 40.7409 9.14411 40.0369 8.28011Z" fill="white"/>
<path d="M65.7058 18.0001H63.6658V8.23211H63.5938L59.9218 18.0001H58.0498L54.3778 8.23211H54.3058V18.0001H52.2658V5.61611H55.1938L58.9618 15.6481H59.0098L62.7778 5.61611H65.7058V18.0001Z" fill="white"/>
<path d="M80.5275 5.61611H82.5675V18.0001H80.5275V5.61611ZM77.4555 11.3761C78.1915 12.0481 78.5595 12.9681 78.5595 14.1361C78.5595 15.3041 78.1995 16.2401 77.4795 16.9441C76.7755 17.6481 75.8235 18.0001 74.6235 18.0001H68.6475V5.61611H70.6875V10.3441H74.5275C75.7435 10.3441 76.7195 10.6881 77.4555 11.3761ZM73.8795 12.0961H70.6875V16.2001H73.8795C74.7115 16.2001 75.3435 16.0241 75.7755 15.6721C76.2235 15.3041 76.4475 14.7921 76.4475 14.1361C76.4475 12.7761 75.5915 12.0961 73.8795 12.0961Z" fill="white"/>
<path d="M102.546 5.61611L97.2416 19.5841C97.0336 20.1441 96.8496 20.5761 96.6896 20.8801C96.5456 21.2001 96.3296 21.5441 96.0416 21.9121C95.7696 22.2961 95.4337 22.5681 95.0337 22.7281C94.6497 22.9041 94.1937 22.9921 93.6657 22.9921C93.2657 22.9921 92.7616 22.9201 92.1536 22.7761V20.9521C92.7456 21.1281 93.1857 21.2161 93.4737 21.2161C94.1457 21.2161 94.6256 20.8721 94.9136 20.1841L95.8736 17.9281L90.9537 5.61611H93.2577L96.9296 15.4801L100.41 5.61611H102.546Z" fill="white"/>
<path d="M117.714 18.0001H115.674V8.23211H115.602L111.93 18.0001H110.058L106.386 8.23211H106.314V18.0001H104.274V5.61611H107.202L110.97 15.6481H111.018L114.786 5.61611H117.714V18.0001Z" fill="white"/>
<path d="M131.311 14.0881C130.687 16.9681 128.887 18.4081 125.911 18.4081C124.087 18.4081 122.655 17.8401 121.615 16.7041C120.591 15.5681 120.079 13.9921 120.079 11.9761C120.079 9.97611 120.607 8.36011 121.663 7.12811C122.735 5.88011 124.127 5.25611 125.839 5.25611C127.743 5.25611 129.151 5.90411 130.063 7.20011C130.991 8.48011 131.455 10.1041 131.455 12.0721V12.3601H122.143L122.119 12.5041C122.119 13.8161 122.463 14.8481 123.151 15.6001C123.839 16.3521 124.783 16.7281 125.983 16.7281C126.879 16.7281 127.583 16.5201 128.095 16.1041C128.623 15.6881 129.031 15.0161 129.319 14.0881H131.311ZM129.343 10.7041C129.247 9.52011 128.887 8.60011 128.263 7.94411C127.639 7.27211 126.815 6.93611 125.791 6.93611C124.799 6.93611 123.975 7.27211 123.319 7.94411C122.663 8.61611 122.271 9.53611 122.143 10.7041H129.343Z" fill="white"/>
<path d="M144.202 14.0881C143.578 16.9681 141.778 18.4081 138.802 18.4081C136.978 18.4081 135.546 17.8401 134.506 16.7041C133.482 15.5681 132.97 13.9921 132.97 11.9761C132.97 9.97611 133.498 8.36011 134.554 7.12811C135.626 5.88011 137.018 5.25611 138.73 5.25611C140.634 5.25611 142.042 5.90411 142.954 7.20011C143.882 8.48011 144.346 10.1041 144.346 12.0721V12.3601H135.034L135.01 12.5041C135.01 13.8161 135.354 14.8481 136.042 15.6001C136.73 16.3521 137.674 16.7281 138.874 16.7281C139.77 16.7281 140.474 16.5201 140.986 16.1041C141.514 15.6881 141.922 15.0161 142.21 14.0881H144.202ZM142.234 10.7041C142.138 9.52011 141.778 8.60011 141.154 7.94411C140.53 7.27211 139.706 6.93611 138.682 6.93611C137.69 6.93611 136.866 7.27211 136.21 7.94411C135.554 8.61611 135.162 9.53611 135.034 10.7041H142.234Z" fill="white"/>
<path d="M159.925 18.0001H157.885V8.23211H157.813L154.141 18.0001H152.269L148.597 8.23211H148.525V18.0001H146.485V5.61611H149.413L153.181 15.6481H153.229L156.997 5.61611H159.925V18.0001Z" fill="white"/>
</g>
<defs>
<filter id="filter0_d_1116_22122" x="54.1998" y="42" width="56.5915" height="18.738" filterUnits="userSpaceOnUse" color-interpolation-filters="sRGB">
<feFlood flood-opacity="0" result="BackgroundImageFix"/>
<feColorMatrix in="SourceAlpha" type="matrix" values="0 0 0 0 0 0 0 0 0 0 0 0 0 0 0 0 0 0 127 0" result="hardAlpha"/>
<feOffset dy="5.80016"/>
<feGaussianBlur stdDeviation="2.90008"/>
<feComposite in2="hardAlpha" operator="out"/>
<feColorMatrix type="matrix" values="0 0 0 0 0 0 0 0 0 0 0 0 0 0 0 0 0 0 0.25 0"/>
<feBlend mode="normal" in2="BackgroundImageFix" result="effect1_dropShadow_1116_22122"/>
<feBlend mode="normal" in="SourceGraphic" in2="effect1_dropShadow_1116_22122" result="shape"/>
</filter>
<filter id="filter1_d_1116_22122" x="0.725586" y="0.912109" width="163.199" height="30.0801" filterUnits="userSpaceOnUse" color-interpolation-filters="sRGB">
<feFlood flood-opacity="0" result="BackgroundImageFix"/>
<feColorMatrix in="SourceAlpha" type="matrix" values="0 0 0 0 0 0 0 0 0 0 0 0 0 0 0 0 0 0 127 0" result="hardAlpha"/>
<feOffset dy="4"/>
<feGaussianBlur stdDeviation="2"/>
<feComposite in2="hardAlpha" operator="out"/>
<feColorMatrix type="matrix" values="0 0 0 0 0 0 0 0 0 0 0 0 0 0 0 0 0 0 0.25 0"/>
<feBlend mode="normal" in2="BackgroundImageFix" result="effect1_dropShadow_1116_22122"/>
<feBlend mode="normal" in="SourceGraphic" in2="effect1_dropShadow_1116_22122" result="shape"/>
</filter>
</defs>
</svg>
