<svg width="45" height="45" viewBox="0 0 45 45" fill="none" xmlns="http://www.w3.org/2000/svg">
<g clip-path="url(#clip0_678_25712)">
<path d="M0.00195312 21.1563C0.00195312 11.1831 0.00195312 6.19653 3.10022 3.09826C6.19848 0 11.185 0 21.1582 0H22.9212C32.8944 0 37.881 0 40.9793 3.09826C44.0775 6.19653 44.0775 11.1831 44.0775 21.1563V22.9193C44.0775 32.8925 44.0775 37.879 40.9793 40.9773C37.881 44.0756 32.8944 44.0756 22.9212 44.0756H21.1582C11.185 44.0756 6.19848 44.0756 3.10022 40.9773C0.00195312 37.879 0.00195312 32.8925 0.00195312 22.9193V21.1563Z" fill="white"/>
<path d="M23.3768 31.7344C13.1368 31.7344 7.2961 24.7855 7.05273 13.2227H12.1821C12.3506 21.7095 16.132 25.3044 19.1273 26.0456V13.2227H23.9574V20.5421C26.9152 20.2271 30.0224 16.8916 31.0707 13.2227H35.9007C35.0957 17.744 31.7261 21.0795 29.3298 22.4507C31.7261 23.5625 35.5639 26.4718 37.0241 31.7344H31.7073C30.5654 28.2136 27.7202 25.4897 23.9574 25.1191V31.7344H23.3768Z" fill="black"/>
</g>
<defs>
<clipPath id="clip0_678_25712">
<rect width="44.0756" height="44.0756" fill="white"/>
</clipPath>
</defs>
</svg>
